<?xml version="1.0" encoding="UTF-8"?>
<svg id="Layer_1" xmlns="http://www.w3.org/2000/svg" version="1.1" viewBox="0 0 213.4 42">
  <!-- Generator: Adobe Illustrator 29.2.1, SVG Export Plug-In . SVG Version: 2.1.0 Build 116)  -->
  <defs>
    <style>
      .st0 {
        fill: #b3b8db;
      }

      .st1 {
        fill: #175cd3;
      }
    </style>
  </defs>
  <path class="st1" d="M42.2,12.1C34.7,6.1,26.1,3.1,16.5,3L2.7,22.6c23.4-1.7,42.2.1,48.6,11.4-3.1-9.8-12.5-16.9-39.7-16l8-11.4c7.8-1.1,15.3,1.2,22.6,5.4h0Z"/>
  <path class="st0" d="M49.2,36.7c-7.3-9.8-20.1-12.2-37.1-9l.8-4.1h-4.1s-3.6,9.3-3.6,9.3c17.2-4.8,32.8-5.7,44,3.7h0Z"/>
  <path class="st0" d="M46.7,39.1c-1.2-4.2-8.9-3.7-17-2.9,6.8.2,14.2-.3,14.5,5.4l2.5-2.5Z"/>
  <path class="st0" d="M71.5,18.9h-8.5c-2,0-3.6-1.6-3.6-3.6v-4.6c0-2,1.6-3.6,3.6-3.6h8.5c2,0,3.6,1.6,3.6,3.6h-1.2c0-1.3-1.1-2.4-2.4-2.4h-8.5c-1.3,0-2.4,1.1-2.4,2.4v4.6c0,1.3,1.1,2.4,2.4,2.4h8.5c1.3,0,2.4-1.1,2.4-2.4h1.2c0,2-1.6,3.6-3.6,3.6Z"/>
  <path class="st0" d="M81.6,18.9c-.3,0-.6-.3-.6-.6V2.9c0-.3.3-.6.6-.6s.6.3.6.6v15.4c0,.3-.3.6-.6.6Z"/>
  <path class="st0" d="M103.7,18.9h-12c-2,0-3.6-1.6-3.6-3.6v-.7c0-1.8,1.5-3.3,3.3-3.3h11.1v-.6c0-1.3-1.1-2.4-2.4-2.4h-9.9c-.3,0-.6-.3-.6-.6s.3-.6.6-.6h9.9c2,0,3.6,1.6,3.6,3.6v8.2h0ZM91.4,12.6c-1.2,0-2.1.9-2.1,2.1v.7c0,1.3,1.1,2.4,2.4,2.4h10.8v-5.2h-11.1Z"/>
  <path class="st0" d="M121.6,18.9h-8.5c-2,0-3.6-1.6-3.6-3.6s.3-.6.6-.6.6.3.6.6c0,1.3,1.1,2.4,2.4,2.4h8.5c1.3,0,2.4-1.1,2.4-2.4s-.8-1.7-1.7-1.7h-9.8c-1.6,0-2.9-1.3-2.9-2.9s1.6-3.6,3.6-3.6h8.5c2,0,3.6,1.6,3.6,3.6s-.3.6-.6.6-.6-.3-.6-.6c0-1.3-1.1-2.4-2.4-2.4h-8.5c-1.3,0-2.4,1.1-2.4,2.4s.8,1.7,1.7,1.7h9.8c1.6,0,2.9,1.3,2.9,2.9s-1.6,3.6-3.6,3.6Z"/>
  <path class="st0" d="M143.2,18.9h-8.5c-2,0-3.6-1.6-3.6-3.6s.3-.6.6-.6.6.3.6.6c0,1.3,1.1,2.4,2.4,2.4h8.5c1.3,0,2.4-1.1,2.4-2.4s-.8-1.7-1.7-1.7h-9.8c-1.6,0-2.9-1.3-2.9-2.9s1.6-3.6,3.6-3.6h8.5c2,0,3.6,1.6,3.6,3.6s-.3.6-.6.6-.6-.3-.6-.6c0-1.3-1.1-2.4-2.4-2.4h-8.5c-1.3,0-2.4,1.1-2.4,2.4s.8,1.7,1.7,1.7h9.8c1.6,0,2.9,1.3,2.9,2.9s-1.6,3.6-3.6,3.6Z"/>
  <path class="st0" d="M164.6,18.9h-8.4c-2,0-3.6-1.6-3.6-3.6V1.4s1.2,0,1.2,0v5.8s0,0,0,0h10.8c2,0,3.6,1.6,3.6,3.6v4.6c0,2-1.6,3.6-3.6,3.6h0ZM153.8,4.7v10.7c0,1.3,1.1,2.4,2.4,2.4h8.4c1.3,0,2.4-1.1,2.4-2.4v-4.5c0-1.3-1.1-2.4-2.4-2.4h-10.8s0,0,0,0v-3.7h0Z"/>
  <path class="st0" d="M186.2,18.9h-8.5c-2,0-3.6-1.6-3.6-3.6v-4.6c0-2,1.6-3.6,3.6-3.6h8.5c2,0,3.6,1.6,3.6,3.6v4.6c0,2-1.6,3.6-3.6,3.6ZM177.7,8.4c-1.3,0-2.4,1.1-2.4,2.4v4.6c0,1.3,1.1,2.4,2.4,2.4h8.5c1.3,0,2.4-1.1,2.4-2.4v-4.6c0-1.3-1.1-2.4-2.4-2.4h-8.5Z"/>
  <path class="st0" d="M210.7,18.9c-.3,0-.6-.3-.6-.6v-7.6c0-1.3-1.1-2.4-2.4-2.4h-8.5c-1.3,0-2.4,1.1-2.4,2.4v7.6c0,.3-.3.6-.6.6s-.6-.3-.6-.6v-7.6c0-2,1.6-3.6,3.6-3.6h8.5c2,0,3.6,1.6,3.6,3.6v7.6c0,.3-.3.6-.6.6h0Z"/>
  <path class="st0" d="M61.3,34.2c0,.3,0,.5.2.7.1.2.2.4.4.5.2.1.4.2.6.3.2,0,.5,0,.7,0s.5,0,.8-.1c.2,0,.4-.2.5-.3.1-.1.2-.3.3-.4,0-.2.1-.3.1-.5s0-.5-.2-.6c-.1-.2-.3-.3-.5-.4-.2-.1-.4-.2-.6-.2-.2,0-.5-.1-.7-.2-.2,0-.5-.1-.7-.2-.2,0-.4-.2-.6-.3-.2-.1-.3-.3-.4-.5-.1-.2-.2-.5-.2-.8s0-.4.1-.7c0-.2.2-.4.4-.6.2-.2.4-.3.7-.4.3,0,.6-.1,1-.1s.7,0,1,.2c.3.1.5.2.7.4.2.2.3.4.4.6s.1.5.1.8h-.6c0-.2,0-.5-.1-.6,0-.2-.2-.3-.4-.4s-.3-.2-.5-.3c-.2,0-.4,0-.6,0-.3,0-.6,0-.8.1-.2,0-.4.2-.5.3s-.2.3-.3.5c0,.2,0,.3,0,.5,0,.2.1.4.3.5.1.1.3.2.5.3.2,0,.4.1.6.2.2,0,.5.1.7.2.2,0,.5.1.7.2.2,0,.4.2.6.3s.3.3.4.5c.1.2.2.5.2.8,0,.6-.2,1.1-.6,1.4-.4.3-1,.5-1.8.5s-.7,0-.9-.1c-.3,0-.5-.2-.8-.4-.2-.2-.4-.4-.5-.7-.1-.3-.2-.6-.2-.9h.6ZM72.1,36.2c0,0-.2,0-.3,0-.1,0-.2,0-.4,0-.3,0-.5,0-.6-.2-.1-.1-.2-.4-.2-.7v-3.5h-.7v-.5h.7v-1.3h.5v1.3h.9v.5h-.9v3.2c0,.1,0,.2,0,.3,0,0,0,.2,0,.2,0,0,0,0,.1.1,0,0,.2,0,.3,0s.1,0,.2,0c0,0,.2,0,.2,0v.4ZM80.3,33.4c0-.2,0-.4-.1-.6,0-.2-.2-.4-.3-.5-.1-.2-.3-.3-.5-.4-.2,0-.4-.1-.6-.1s-.5,0-.6.1c-.2,0-.3.2-.5.4-.1.2-.2.3-.3.5,0,.2-.1.4-.2.6h3.1ZM77.2,33.9c0,.3,0,.5.1.7,0,.2.2.4.3.6.1.2.3.3.5.4.2,0,.4.1.7.1s.7,0,.9-.3c.3-.2.4-.5.5-.8h.6c0,.2-.2.4-.3.6-.1.2-.2.4-.4.5-.2.1-.4.2-.6.3-.2,0-.5.1-.8.1s-.7,0-1-.2c-.3-.1-.5-.3-.7-.5-.2-.2-.3-.5-.4-.8,0-.3-.1-.6-.1-1s0-.7.1-1c.1-.3.2-.6.4-.8.2-.2.4-.4.7-.5.3-.1.6-.2.9-.2.7,0,1.2.2,1.5.7.4.4.6,1.1.5,1.9h-3.7ZM89,33.7c-.2,0-.5.2-.7.2s-.5,0-.7,0c-.4,0-.7.1-1,.3-.2.2-.3.4-.3.7s0,.3,0,.4c0,.1.1.2.2.3,0,0,.2.1.3.2.1,0,.3,0,.4,0,.2,0,.4,0,.6,0,.2,0,.4-.1.5-.2.2-.1.3-.3.4-.4,0-.2.1-.4.1-.6v-.7ZM88,33.4c.1,0,.2,0,.4,0,.1,0,.3,0,.4-.1,0,0,.1-.1.2-.2,0-.1,0-.2,0-.3,0-.3,0-.5-.3-.7-.2-.2-.5-.3-.9-.3s-.4,0-.5,0c-.2,0-.3,0-.4.2-.1,0-.2.2-.3.3,0,.1-.1.3-.1.5h-.6c0-.3,0-.5.2-.7.1-.2.2-.4.4-.5.2-.1.4-.2.6-.3.2,0,.5,0,.7,0s.5,0,.7,0c.2,0,.4.1.5.2.2.1.3.3.4.4,0,.2.1.4.1.7v2.6c0,.2,0,.3.1.4,0,0,.2,0,.5,0v.4s-.1,0-.2,0c0,0-.2,0-.2,0s-.2,0-.2,0c0,0-.2,0-.2,0,0,0-.1-.1-.1-.2,0,0,0-.1,0-.2,0,0,0-.2,0-.2-.2.3-.5.4-.8.6s-.6.2-1,.2-.4,0-.6,0c-.2,0-.4-.1-.5-.3-.1-.1-.3-.3-.3-.4,0-.2-.1-.4-.1-.6,0-.8.5-1.3,1.6-1.4h.8ZM98.5,33.8c0-.3,0-.5-.1-.8,0-.2-.2-.5-.3-.6-.1-.2-.3-.3-.5-.4-.2-.1-.4-.2-.7-.2s-.5,0-.7.2c-.2.1-.4.3-.5.5-.1.2-.2.4-.3.7,0,.3,0,.5,0,.8,0,.3,0,.6.1.8,0,.2.2.4.3.6.1.2.3.3.5.4.2,0,.4.1.6.1s.5,0,.7-.2c.2-.1.4-.2.5-.4.1-.2.2-.4.3-.6,0-.2.1-.5.1-.8ZM98.5,29.6h.5v6.6h-.5v-.8h0c0,.2-.2.3-.3.4-.1.1-.3.2-.4.3-.1,0-.3.1-.5.2s-.3,0-.5,0c-.4,0-.7,0-1-.2s-.5-.3-.7-.5c-.2-.2-.3-.5-.4-.8,0-.3-.1-.6-.1-1s0-.6.1-.9.2-.6.4-.8c.2-.2.4-.4.7-.5.3-.1.6-.2.9-.2s.7,0,1,.2c.3.1.6.4.7.7v-2.6ZM104.3,37.4c0,0,.1,0,.2,0,0,0,.2,0,.2,0,.2,0,.3,0,.4-.1s.2-.2.2-.4c0-.1.1-.3.2-.4,0-.1,0-.3.1-.4l-1.8-4.8h.6l1.5,4.1,1.5-4.1h.6l-1.8,4.7c-.1.3-.2.6-.3.8,0,.2-.2.4-.3.6-.1.2-.2.3-.4.4-.1,0-.3.1-.5.1s-.2,0-.3,0c0,0-.2,0-.2,0v-.5ZM119.6,36.1v-6.6h.6v6.6h-.6ZM126.2,36.1h-.5v-4.7h.5v.7h0c.1-.3.3-.5.6-.6.3-.1.5-.2.9-.2s.4,0,.6,0,.3.1.4.2c.1,0,.2.2.3.3,0,.1.1.2.2.4.2-.3.4-.5.6-.7.3-.2.6-.2.9-.2s.6,0,.8.2c.2.1.3.2.4.4.1.2.2.4.2.6,0,.2,0,.5,0,.7v3h-.5v-3.3c0-.3,0-.6-.2-.8-.1-.2-.4-.3-.8-.3s-.4,0-.6.1c-.2,0-.3.2-.5.4,0,0-.1.2-.2.3,0,.1,0,.2,0,.3s0,.2,0,.3c0,.1,0,.2,0,.3v2.5h-.5v-3.3c0-.3,0-.6-.2-.8-.1-.2-.4-.3-.8-.3s-.4,0-.6.1c-.2,0-.3.2-.5.4,0,0-.1.2-.2.3,0,.1,0,.2,0,.3s0,.2,0,.3c0,.1,0,.2,0,.3v2.5ZM137.8,33.8c0,.3,0,.5.1.8,0,.2.2.4.3.6.1.2.3.3.5.4.2.1.4.2.7.2s.5,0,.7-.2c.2-.1.4-.3.5-.5.1-.2.2-.4.3-.7,0-.3,0-.5,0-.8,0-.3,0-.6-.1-.8,0-.2-.2-.4-.3-.6-.1-.2-.3-.3-.5-.4-.2,0-.4-.1-.6-.1s-.5,0-.7.2c-.2.1-.4.2-.5.4-.1.2-.2.4-.3.6,0,.2-.1.5-.1.8ZM137.8,38h-.5v-6.6h.5v.8h0c0-.2.2-.3.3-.4.1-.1.3-.2.4-.3.2,0,.3-.1.5-.2.2,0,.3,0,.5,0,.4,0,.7,0,1,.2.3.1.5.3.7.5.2.2.3.5.4.8,0,.3.1.6.1,1s0,.6-.1.9-.2.6-.4.8c-.2.2-.4.4-.7.5-.3.1-.6.2-.9.2s-.7,0-1-.2c-.3-.2-.5-.4-.7-.7v2.6ZM147.3,36.1h-.5v-4.7h.5v.9h0c.2-.4.3-.6.6-.8.2-.2.6-.2,1-.2v.6c-.3,0-.6,0-.8.1-.2.1-.4.2-.5.4-.1.2-.2.4-.2.6,0,.2,0,.5,0,.7v2.3ZM155.4,36.3c-.3,0-.6,0-.9-.2-.3-.1-.5-.3-.7-.5-.2-.2-.3-.5-.5-.8s-.2-.7-.2-1.1,0-.7.1-1c0-.3.2-.6.4-.8.2-.2.4-.4.7-.5.3-.1.6-.2,1-.2s.7,0,1,.2c.3.1.5.3.7.5.2.2.3.5.4.8,0,.3.1.6.1,1s0,.7-.2,1-.3.6-.4.8c-.2.2-.4.4-.7.5-.3.1-.6.2-.9.2ZM157,33.8c0-.3,0-.5,0-.8,0-.2-.2-.5-.3-.6-.1-.2-.3-.3-.5-.4-.2-.1-.4-.2-.7-.2s-.5,0-.7.2c-.2.1-.4.3-.5.4-.1.2-.2.4-.3.6,0,.2,0,.5,0,.7s0,.6.1.8c0,.2.2.5.3.6.1.2.3.3.5.4.2,0,.4.1.7.1s.5,0,.7-.2c.2-.1.4-.3.5-.5.1-.2.2-.4.3-.6,0-.2,0-.5,0-.7ZM162,31.4h.6l1.5,4,1.5-4h.6l-1.8,4.7h-.6l-1.8-4.7ZM174.4,33.4c0-.2,0-.4-.1-.6,0-.2-.2-.4-.3-.5-.1-.2-.3-.3-.5-.4-.2,0-.4-.1-.6-.1s-.5,0-.6.1c-.2,0-.3.2-.5.4-.1.2-.2.3-.3.5,0,.2-.1.4-.2.6h3.1ZM171.3,33.9c0,.3,0,.5.1.7,0,.2.2.4.3.6.1.2.3.3.5.4.2,0,.4.1.7.1s.7,0,.9-.3.4-.5.5-.8h.6c0,.2-.2.4-.3.6-.1.2-.2.4-.4.5-.2.1-.4.2-.6.3-.2,0-.5.1-.8.1s-.7,0-1-.2c-.3-.1-.5-.3-.7-.5-.2-.2-.3-.5-.4-.8,0-.3-.1-.6-.1-1s0-.7.1-1c.1-.3.2-.6.4-.8.2-.2.4-.4.7-.5.3-.1.6-.2.9-.2.7,0,1.2.2,1.5.7.4.4.6,1.1.5,1.9h-3.7ZM180.4,36.1h-.5v-4.7h.5v.7h0c.1-.3.3-.5.6-.6.3-.1.5-.2.9-.2s.4,0,.6,0c.2,0,.3.1.4.2.1,0,.2.2.3.3,0,.1.1.2.2.4.2-.3.4-.5.6-.7.3-.2.6-.2.9-.2s.6,0,.8.2c.2.1.3.2.4.4.1.2.2.4.2.6,0,.2,0,.5,0,.7v3h-.5v-3.3c0-.3,0-.6-.2-.8-.1-.2-.4-.3-.8-.3s-.4,0-.6.1c-.2,0-.3.2-.5.4,0,0-.1.2-.2.3,0,.1,0,.2,0,.3,0,.1,0,.2,0,.3,0,.1,0,.2,0,.3v2.5h-.5v-3.3c0-.3,0-.6-.2-.8-.1-.2-.4-.3-.8-.3s-.4,0-.6.1c-.2,0-.3.2-.5.4,0,0-.1.2-.2.3,0,.1,0,.2,0,.3s0,.2,0,.3c0,.1,0,.2,0,.3v2.5ZM194.9,33.4c0-.2,0-.4-.1-.6,0-.2-.2-.4-.3-.5-.1-.2-.3-.3-.5-.4-.2,0-.4-.1-.6-.1s-.5,0-.6.1c-.2,0-.3.2-.5.4-.1.2-.2.3-.3.5,0,.2-.1.4-.2.6h3.1ZM191.8,33.9c0,.3,0,.5.1.7,0,.2.2.4.3.6.1.2.3.3.5.4.2,0,.4.1.7.1s.7,0,.9-.3c.3-.2.4-.5.5-.8h.6c0,.2-.2.4-.3.6-.1.2-.2.4-.4.5-.2.1-.4.2-.6.3-.2,0-.5.1-.8.1s-.7,0-1-.2-.5-.3-.7-.5c-.2-.2-.3-.5-.4-.8,0-.3-.1-.6-.1-1s0-.7.1-1c.1-.3.2-.6.4-.8.2-.2.4-.4.7-.5.3-.1.6-.2.9-.2.7,0,1.2.2,1.5.7.4.4.6,1.1.5,1.9h-3.7ZM201,36.1h-.5v-4.7h.5v.7c.2-.2.4-.4.7-.6.2-.1.5-.2.8-.2s.6,0,.8.2c.2,0,.5.3.6.5.1.2.2.3.2.5,0,.2,0,.4,0,.6v3.1h-.5v-3.1c0-.4,0-.7-.3-1-.2-.2-.5-.3-.9-.3s-.3,0-.5,0c-.1,0-.3.1-.4.2-.1,0-.2.2-.3.3s-.1.2-.2.3c0,.2,0,.3-.1.4,0,.1,0,.3,0,.5v2.5ZM211.1,36.2c0,0-.2,0-.3,0s-.2,0-.4,0c-.3,0-.5,0-.6-.2-.1-.1-.2-.4-.2-.7v-3.5h-.7v-.5h.7v-1.3h.5v1.3h.9v.5h-.9v3.2c0,.1,0,.2,0,.3,0,0,0,.2,0,.2,0,0,0,0,.1.1,0,0,.2,0,.3,0s.1,0,.2,0c0,0,.2,0,.2,0v.4Z"/>
</svg>